<svg xmlns="http://www.w3.org/2000/svg" viewBox="0 0 64 64" role="img" aria-label="Dashboard icon">
  <defs>
    <linearGradient id="edge" x1="8" y1="8" x2="56" y2="56" gradientUnits="userSpaceOnUse">
      <stop stop-color="#46fff2"/>
      <stop offset="0.52" stop-color="#ff2db8"/>
      <stop offset="1" stop-color="#b7ff3c"/>
    </linearGradient>
    <linearGradient id="core" x1="18" y1="14" x2="48" y2="52" gradientUnits="userSpaceOnUse">
      <stop stop-color="#0c2227"/>
      <stop offset="1" stop-color="#03080b"/>
    </linearGradient>
    <filter id="glow" x="-30%" y="-30%" width="160%" height="160%">
      <feGaussianBlur stdDeviation="2.2" result="blur"/>
      <feMerge>
        <feMergeNode in="blur"/>
        <feMergeNode in="SourceGraphic"/>
      </feMerge>
    </filter>
  </defs>
  <rect width="64" height="64" rx="14" fill="#02070a"/>
  <path d="M8 18 18 8h28l10 10v28L46 56H18L8 46Z" fill="url(#core)" stroke="url(#edge)" stroke-width="3"/>
  <g filter="url(#glow)">
    <path d="M18 21h28M18 32h28M18 43h28" stroke="#12343a" stroke-width="3" stroke-linecap="round"/>
    <path d="M19 43 27 33l7 5 11-16" fill="none" stroke="#b7ff3c" stroke-width="4" stroke-linecap="round" stroke-linejoin="round"/>
    <circle cx="19" cy="43" r="3.2" fill="#46fff2"/>
    <circle cx="27" cy="33" r="3.2" fill="#ff2db8"/>
    <circle cx="34" cy="38" r="3.2" fill="#ffd84a"/>
    <circle cx="45" cy="22" r="3.2" fill="#46fff2"/>
  </g>
  <path d="M13 18h6M45 51h6M13 46v-6M51 18v6" stroke="#46fff2" stroke-width="2" stroke-linecap="round" opacity="0.8"/>
</svg>
